<svg version="1.1" xmlns="http://www.w3.org/2000/svg" xmlns:xlink="http://www.w3.org/1999/xlink" x="0px" y="0px" viewBox="0 0 512 512" style="enable-background:new 0 0 512 512;" xml:space="preserve">
<g id="_x31_083_x2C__Friends_x2C__group_x2C__users_x2C__team">
<g>
<g>
<g id="XMLID_681_">
<g>
<g>
<path style="fill: rgb(89, 97, 99);" d="M361.18,96.5c30.07,0,54.44,24.38,54.44,54.45s-24.37,54.45-54.44,54.45
							c-30.08,0-54.449-24.38-54.449-54.45S331.1,96.5,361.18,96.5z" id="id_109"></path>
</g>
<g>
<path style="fill: rgb(74, 91, 94);" d="M461,305.22v20.17c0,19.851-14.2,36.86-33.73,40.41H324.33v-8.39
							c0-41.8-18.76-79.2-48.32-104.27c17.55-28.631,49.12-47.74,85.17-47.74C416.31,205.4,461,250.09,461,305.22z" id="id_110"></path>
</g>
<g>
<path style="fill: rgb(91, 100, 102);" d="M187.67,71.65c41.17,0,74.54,33.38,74.54,74.55s-33.37,74.54-74.54,74.54
							s-74.55-33.37-74.55-74.54S146.5,71.65,187.67,71.65z" id="id_111"></path>
</g>
<g>
<path style="fill: rgb(76, 93, 97);" d="M276.01,253.141c29.56,25.069,48.32,62.47,48.32,104.27v8.39v19.22
							c0,27.181-19.43,50.471-46.18,55.33H97.18C70.44,435.49,51,412.2,51,385.02V357.41c0-37.74,15.3-71.91,40.03-96.641
							c24.73-24.73,58.9-40.029,96.64-40.029C221.35,220.74,252.18,232.94,276.01,253.141z" id="id_112"></path>
</g>
</g>
<g>
<g>
<path style="fill: rgb(255, 255, 255);" d="M187.67,228.74c-45.518,0-82.55-37.027-82.55-82.54c0-45.519,37.032-82.55,82.55-82.55
							c45.513,0,82.54,37.031,82.54,82.55C270.21,191.713,233.183,228.74,187.67,228.74z M187.67,79.65
							c-36.696,0-66.55,29.854-66.55,66.55c0,36.69,29.854,66.54,66.55,66.54c36.691,0,66.54-29.85,66.54-66.54
							C254.21,109.505,224.36,79.65,187.67,79.65z" id="id_113"></path>
</g>
<g>
<path style="fill: rgb(255, 255, 255);" d="M427.27,373.8H324.33c-4.418,0-8-3.582-8-8s3.582-8,8-8h102.18
							C441.9,354.677,453,341.155,453,325.39v-20.17c0-50.629-41.19-91.819-91.82-91.819c-32.202,0-61.491,16.419-78.35,43.921
							c-2.308,3.767-7.233,4.95-11.001,2.64c-3.768-2.31-4.949-7.234-2.64-11.001c19.79-32.285,54.179-51.56,91.99-51.56
							C420.632,197.4,469,245.768,469,305.22v20.17c0,23.732-16.948,44.037-40.3,48.281C428.228,373.757,427.749,373.8,427.27,373.8
							z" id="id_114"></path>
</g>
<g>
<path style="fill: rgb(255, 255, 255);" d="M278.15,448.35H97.18c-0.479,0-0.958-0.043-1.43-0.129C65.185,442.666,43,416.086,43,385.02
							V357.41c0-38.643,15.048-74.973,42.373-102.297c27.325-27.324,63.654-42.373,102.297-42.373
							c34.212,0,67.422,12.181,93.513,34.298c32.506,27.566,51.147,67.796,51.147,110.372v27.609
							c0,31.069-22.185,57.648-52.75,63.201C279.108,448.307,278.63,448.35,278.15,448.35z M97.929,432.35h179.474
							c22.598-4.438,38.928-24.232,38.928-47.33V357.41c0-37.867-16.582-73.648-45.495-98.169
							c-23.202-19.668-52.738-30.501-83.165-30.501c-34.369,0-66.681,13.384-90.983,37.687C72.384,290.729,59,323.041,59,357.41
							v27.609C59,408.116,75.33,427.91,97.929,432.35z" id="id_115"></path>
</g>
<g>
<path style="fill: rgb(255, 255, 255);" d="M361.18,213.4c-34.435,0-62.449-28.015-62.449-62.45c0-34.435,28.015-62.45,62.449-62.45
							c34.43,0,62.44,28.016,62.44,62.45C423.62,185.386,395.609,213.4,361.18,213.4z M361.18,104.5
							c-25.612,0-46.449,20.838-46.449,46.45s20.837,46.45,46.449,46.45c25.607,0,46.44-20.838,46.44-46.45
							S386.787,104.5,361.18,104.5z" id="id_116"></path>
</g>
</g>
</g>
</g>
</g>
</g>
<g id="Layer_1">
</g>
</svg>