<svg width="24" height="24" viewBox="0 0 24 24" fill="none" xmlns="http://www.w3.org/2000/svg">
<path fill-rule="evenodd" clip-rule="evenodd" d="M4 3C3.44772 3 3 3.44772 3 4V5H6.38197L5.38197 3H4ZM7.61803 3L8.61803 5H11.382L10.382 3H7.61803ZM12.618 3L13.618 5H16.382L15.382 3H12.618ZM17.618 3L18.618 5H21V4C21 3.44772 20.5523 3 20 3H17.618ZM21 7H3V20C3 20.5523 3.44772 21 4 21H20C20.5523 21 21 20.5523 21 20V7ZM1 4C1 2.34315 2.34315 1 4 1H20C21.6569 1 23 2.34315 23 4V20C23 21.6569 21.6569 23 20 23H4C2.34315 23 1 21.6569 1 20V4ZM9.52814 9.11833C9.8533 8.94431 10.2478 8.96338 10.5547 9.16795L16.5547 13.1679C16.8329 13.3534 17 13.6656 17 14C17 14.3344 16.8329 14.6466 16.5547 14.8321L10.5547 18.8321C10.2478 19.0366 9.8533 19.0557 9.52814 18.8817C9.20298 18.7077 9 18.3688 9 18V10C9 9.6312 9.20298 9.29235 9.52814 9.11833ZM11 11.8685V16.1315L14.1972 14L11 11.8685Z" fill="#cfcfcf" id="id_101"></path>
</svg>