<svg width="64" height="64" viewBox="0 0 64 64" fill="none" xmlns="http://www.w3.org/2000/svg">
<path d="M48 38H31C30.7348 38 30.4804 38.1054 30.2929 38.2929C30.1054 38.4804 30 38.7348 30 39V54C30 54.2652 30.1054 54.5196 30.2929 54.7071C30.4804 54.8946 30.7348 55 31 55H48C48.2652 55 48.5196 54.8946 48.7071 54.7071C48.8946 54.5196 49 54.2652 49 54V39C49 38.7348 48.8946 38.4804 48.7071 38.2929C48.5196 38.1054 48.2652 38 48 38ZM47 53H32V40H47V53Z" fill="#ffffff" id="id_101"></path>
<path d="M60 57H53V35.91C54.3971 35.6739 55.6655 34.9509 56.5806 33.8692C57.4958 32.7875 57.9986 31.4169 58 30V26C58.0047 25.9368 58.0047 25.8732 58 25.81C58.0093 25.7739 58.0093 25.7361 58 25.7L53 9.7C52.934 9.48929 52.8001 9.30635 52.6192 9.17972C52.4383 9.0531 52.2206 8.9899 52 9H41V6C41 5.73478 40.8946 5.48043 40.7071 5.29289C40.5196 5.10536 40.2652 5 40 5H24C23.7348 5 23.4804 5.10536 23.2929 5.29289C23.1054 5.48043 23 5.73478 23 6V9H12C11.7879 9.00084 11.5815 9.0691 11.4107 9.19494C11.24 9.32077 11.1136 9.49765 11.05 9.7L6.05 25.7C6.04069 25.7361 6.04069 25.7739 6.05 25.81C6.02853 25.872 6.01181 25.9355 6 26V30C6.00144 31.4169 6.50425 32.7875 7.41939 33.8692C8.33452 34.9509 9.60294 35.6739 11 35.91V57H4C3.73478 57 3.48043 57.1054 3.29289 57.2929C3.10536 57.4804 3 57.7348 3 58C3 58.2652 3.10536 58.5196 3.29289 58.7071C3.48043 58.8946 3.73478 59 4 59H60C60.2652 59 60.5196 58.8946 60.7071 58.7071C60.8946 58.5196 61 58.2652 61 58C61 57.7348 60.8946 57.4804 60.7071 57.2929C60.5196 57.1054 60.2652 57 60 57ZM52 34C51.1137 33.9993 50.2528 33.7044 49.5523 33.1614C48.8519 32.6184 48.3516 31.8581 48.13 31H55.87C55.6484 31.8581 55.1481 32.6184 54.4477 33.1614C53.7472 33.7044 52.8863 33.9993 52 34ZM37 29H8V27H56V29H37ZM45.87 31C45.6463 31.856 45.1451 32.6137 44.4448 33.1544C43.7445 33.6952 42.8848 33.9885 42 33.9885C41.1152 33.9885 40.2555 33.6952 39.5552 33.1544C38.8549 32.6137 38.3537 31.856 38.13 31H45.87ZM35.87 31C35.6397 31.8474 35.137 32.5954 34.4394 33.1287C33.7418 33.6621 32.8881 33.951 32.01 33.951C31.1319 33.951 30.2782 33.6621 29.5806 33.1287C28.883 32.5954 28.3803 31.8474 28.15 31H35.87ZM25.87 31C25.6397 31.8474 25.137 32.5954 24.4394 33.1287C23.7418 33.6621 22.8881 33.951 22.01 33.951C21.1319 33.951 20.2782 33.6621 19.5806 33.1287C18.883 32.5954 18.3803 31.8474 18.15 31H25.87ZM25 7H39V13H25V7ZM12.74 11H23V14C23 14.2652 23.1054 14.5196 23.2929 14.7071C23.4804 14.8946 23.7348 15 24 15H40C40.2652 15 40.5196 14.8946 40.7071 14.7071C40.8946 14.5196 41 14.2652 41 14V11H51.26L55.64 25H8.36L12.74 11ZM8.14 31H15.86C15.6297 31.8474 15.127 32.5954 14.4294 33.1287C13.7318 33.6621 12.8781 33.951 12 33.951C11.1219 33.951 10.2682 33.6621 9.5706 33.1287C8.873 32.5954 8.37028 31.8474 8.14 31V31ZM17 57V40H26V57H17ZM28 57V39C28 38.7348 27.8946 38.4804 27.7071 38.2929C27.5196 38.1054 27.2652 38 27 38H16C15.7348 38 15.4804 38.1054 15.2929 38.2929C15.1054 38.4804 15 38.7348 15 39V57H13V35.91C13.8091 35.7732 14.5815 35.4719 15.2695 35.0247C15.9575 34.5774 16.5465 33.9939 17 33.31C17.5473 34.1351 18.2903 34.8119 19.1627 35.2801C20.0351 35.7483 21.0099 35.9934 22 35.9934C22.9901 35.9934 23.9649 35.7483 24.8373 35.2801C25.7097 34.8119 26.4527 34.1351 27 33.31C27.5473 34.1351 28.2903 34.8119 29.1627 35.2801C30.0351 35.7483 31.0099 35.9934 32 35.9934C32.9901 35.9934 33.9649 35.7483 34.8373 35.2801C35.7097 34.8119 36.4527 34.1351 37 33.31C37.5473 34.1351 38.2903 34.8119 39.1627 35.2801C40.0351 35.7483 41.0099 35.9934 42 35.9934C42.9901 35.9934 43.9649 35.7483 44.8373 35.2801C45.7097 34.8119 46.4527 34.1351 47 33.31C47.4535 33.9939 48.0425 34.5774 48.7305 35.0247C49.4185 35.4719 50.1909 35.7732 51 35.91V57H28Z" fill="#ffffff" id="id_102"></path>
</svg>